<svg width="30" height="37" viewBox="0 0 30 37" fill="none" xmlns="http://www.w3.org/2000/svg">
<path d="M0 10.7916V13.875V15.4166V20.0416V21.5833V29.2916V30.8333C0 32.5291 1.49233 33.9166 3.33333 33.9166H26.6667C28.5083 33.9166 30 32.5291 30 30.8333V29.2916V21.5833V15.4166V10.7916H0Z" fill="#424242"/>
<path d="M0 9.25V12.3333V13.875V18.5V20.0417V27.75V29.2917C0 30.9875 1.49233 32.375 3.33333 32.375H26.6667C28.5083 32.375 30 30.9875 30 29.2917V27.75V20.0417V13.875V9.25H0Z" fill="#ECF0F1"/>
<path d="M0 7.70837V10.7917V12.3334V16.9584V18.5V26.2084V27.75C0 29.4459 1.49233 30.8334 3.33333 30.8334H26.6667C28.5083 30.8334 30 29.4459 30 27.75V26.2084V18.5V12.3334V7.70837H0Z" fill="#BDC3C7"/>
<path d="M0 6.16663V9.24996V10.7916V15.4166V16.9583V24.6666V26.2083C0 27.9041 1.49233 29.2916 3.33333 29.2916H26.6667C28.5083 29.2916 30 27.9041 30 26.2083V24.6666V16.9583V10.7916V6.16663H0Z" fill="#ECF0F1"/>
<path d="M3.33333 0C1.49233 0 0 1.3875 0 3.08333V4.625V10.7917V13.875V15.4167V20.0417V21.5833V29.2917V30.8333C0 32.5292 1.49233 33.9167 3.33333 33.9167H6.66667V32.375H4.16667C2.786 32.375 1.66667 31.2958 1.66667 30.0625C1.66667 28.675 2.786 27.75 4.16667 27.75H25H26.6667C28.5083 27.75 30 26.3625 30 24.6667V23.125V15.4167V9.25V4.625V3.08333C30 1.3875 28.5083 0 26.6667 0H20H3.33333Z" fill="#424242"/>
<path d="M8.33334 0V27.75H10H25H26.6667C28.5083 27.75 30 26.3625 30 24.6667V23.125V15.4167V9.25V4.625V3.08333C30 1.3875 28.5083 0 26.6667 0H20H10H8.33334Z" fill="#424242"/>
<path d="M6.66666 30.8334V33.9167V37L10.8333 33.9167L15 37V33.9167V30.8334H6.66666Z" fill="#FFB9EB"/>
<path d="M6.66666 29.2916H15V30.8333H6.66666V29.2916Z" fill="#FFB9EB"/>
</svg>
