<svg width="35" height="36" viewBox="0 0 35 36" fill="none" xmlns="http://www.w3.org/2000/svg">
<path d="M9.84375 20.25H7.65625V36H9.84375C10.4453 36 10.9375 35.4937 10.9375 34.875V21.375C10.9375 20.7562 10.4453 20.25 9.84375 20.25Z" fill="#424242"/>
<path d="M25.1562 20.25C24.5547 20.25 24.0625 20.7562 24.0625 21.375V34.875C24.0625 35.4937 24.5547 36 25.1562 36H27.3438V20.25H25.1562Z" fill="#424242"/>
<path d="M35 18C35 8.0595 27.1644 0 17.5 0C7.83562 0 0 8.0595 0 18C0 20.16 0.369687 22.23 1.04781 24.147C0.382813 25.3148 0 26.6737 0 28.125C0 32.0918 2.8525 35.3745 6.5625 35.919V20.331C5.47094 20.4908 4.45594 20.889 3.56344 21.4695C3.37969 20.5312 3.28125 19.5592 3.28125 18.5625C3.28125 10.485 9.64688 3.9375 17.5 3.9375C25.3531 3.9375 31.7188 10.485 31.7188 18.5625C31.7188 19.557 31.6225 20.529 31.4387 21.4695C30.5462 20.8867 29.5291 20.4907 28.4375 20.3288V35.919C32.1475 35.3722 35 32.0918 35 28.125C35 26.6737 34.6172 25.3148 33.9522 24.147C34.6303 22.2278 35 20.1577 35 18Z" fill="#424242"/>
</svg>
