<svg width="23" height="40" viewBox="0 0 23 40" fill="none" xmlns="http://www.w3.org/2000/svg">
<path d="M19.7896 0H3.21042C1.4375 0 0 1.185 0 2.6465V36.8535C0 38.315 1.4375 39.5 3.21042 39.5H19.7896C21.5625 39.5 23 38.315 23 36.8535V2.6465C23 1.185 21.5625 0 19.7896 0ZM9.58333 2.1725C9.58333 1.9355 9.82292 1.7775 10.1104 1.7775H12.8896C13.1771 1.7775 13.4167 1.9355 13.4167 2.1725V2.923C13.4167 3.16 13.1771 3.3575 12.8896 3.3575H10.1104C9.82292 3.3575 9.58333 3.16 9.58333 2.923V2.1725ZM11.7396 37.7225C10.5896 37.7225 9.63125 36.972 9.63125 36.024C9.63125 35.076 10.5896 34.286 11.7396 34.286C12.8896 34.286 13.8 35.0365 13.8 36.024C13.8 36.972 12.8896 37.7225 11.7396 37.7225ZM21.0833 33.18H1.91667V4.74H21.0833V33.18Z" fill="#424242"/>
</svg>
