<svg width="46" height="34" viewBox="0 0 46 34" fill="none" xmlns="http://www.w3.org/2000/svg">
<mask id="path-1-inside-1_63011_165" fill="white">
<path d="M16.3684 31.6296H29.6316V34H16.3684V31.6296Z"/>
</mask>
<path d="M16.3684 31.6296H29.6316V34H16.3684V31.6296Z" fill="#424242"/>
<path d="M16.3684 31.6296V28.7086H13.4474V31.6296H16.3684ZM29.6316 31.6296H32.5526V28.7086H29.6316V31.6296ZM29.6316 34V36.9211H32.5526V34H29.6316ZM16.3684 34H13.4474V36.9211H16.3684V34ZM16.3684 34.5507H29.6316V28.7086H16.3684V34.5507ZM26.7105 31.6296V34H32.5526V31.6296H26.7105ZM29.6316 31.079H16.3684V36.9211H29.6316V31.079ZM19.2895 34V31.6296H13.4474V34H19.2895Z" fill="#424242" mask="url(#path-1-inside-1_63011_165)"/>
<path d="M2 2H44V28.0741H2V2Z" fill="#424242" stroke="#424242" stroke-width="2.92105"/>
</svg>
