<svg width="31" height="43" viewBox="0 0 31 43" fill="none" xmlns="http://www.w3.org/2000/svg">
<path d="M15.5168 0C11.4791 0 8.17554 3.47583 8.17554 7.74V8.95833C8.17554 10.2842 8.90966 11.3592 10.3779 11.4667V7.74C10.3779 4.76583 12.6804 2.32917 15.5168 2.32917C18.3531 2.32917 20.6556 4.76583 20.6556 7.74V11.4667C21.7568 11.395 22.858 10.2842 22.858 8.95833V7.74C22.858 3.47583 19.5544 0 15.5168 0Z" fill="#424242"/>
<path d="M21.4564 33.6833H9.61033C8.8762 33.6833 8.24219 33.0383 8.24219 32.2141V31.9633C8.24219 31.175 8.84283 30.4941 9.61033 30.4941H21.4898C22.2239 30.4941 22.8579 31.1391 22.8579 31.9633V32.25C22.8245 33.0383 22.2239 33.6833 21.4564 33.6833Z" fill="#29B6F6"/>
<path d="M3.10334 43H27.8967C29.5985 43 31 41.6025 31 39.9183V20.3175C31 11.1441 24.0592 4.40747 15.5167 4.40747C6.97417 4.40747 0 11.1083 0 20.3175V39.9183C0 41.6025 1.40151 43 3.10334 43Z" fill="#424242"/>
<path d="M23.859 39.6317H7.2411C5.40579 39.6317 3.90417 38.0192 3.90417 36.0483V25.2625C3.90417 24.6533 4.33797 24.1875 4.90525 24.1875H26.1614C26.7287 24.1875 27.1625 24.6533 27.1625 25.2625V36.0483C27.1959 38.0192 25.6943 39.6317 23.859 39.6317Z" fill="#FDFCDC"/>
<path d="M18.9204 17.1642H12.1798C10.7783 17.1642 9.61035 15.9459 9.61035 14.405C9.61035 12.8642 10.7449 11.6459 12.1798 11.6459H18.9204C20.3219 11.6459 21.4898 12.8642 21.4898 14.405C21.4898 15.91 20.3219 17.1642 18.9204 17.1642Z" fill="black"/>
<path opacity="0.2" d="M26.1948 24.9042C26.395 24.9042 26.5285 25.0475 26.5285 25.2625V36.0483C26.5285 37.625 25.3272 38.915 23.859 38.915H7.2411C5.77285 38.915 4.57156 37.625 4.57156 36.0483V25.2625C4.57156 25.0475 4.7384 24.9042 4.90525 24.9042H26.1948ZM26.1948 24.1875H4.90525C4.33797 24.1875 3.90417 24.6533 3.90417 25.2625V36.0483C3.90417 38.0192 5.40579 39.6317 7.2411 39.6317H23.8256C25.6609 39.6317 27.1625 38.0192 27.1625 36.0483V25.2625C27.1959 24.6892 26.7621 24.1875 26.1948 24.1875Z" fill="#424242"/>
<path d="M23.8923 32.4649H7.27442C5.43911 32.4649 3.9375 30.4941 3.9375 28.5233V24.4741C3.9375 23.6858 4.53815 23.0408 5.27227 23.0408H25.8944C26.6286 23.0408 27.2292 23.6858 27.2292 24.4741V28.5233C27.2292 30.4941 25.7276 32.4649 23.8923 32.4649Z" fill="#FDFCDC"/>
<path opacity="0.2" d="M25.8944 23.7574C26.2615 23.7574 26.5618 24.0799 26.5618 24.4741V28.5233C26.5618 30.3866 25.1603 31.7483 23.8923 31.7483H7.27442C6.00639 31.7483 4.60488 30.3866 4.60488 28.5233V24.4741C4.60488 24.0799 4.90521 23.7574 5.27227 23.7574H25.8944ZM25.8944 23.0408H5.27227C4.53815 23.0408 3.9375 23.6858 3.9375 24.4741V28.5233C3.9375 30.4941 5.43911 32.4649 7.27442 32.4649H23.8923C25.7276 32.4649 27.2292 30.4941 27.2292 28.5233V24.4741C27.2292 23.6858 26.6286 23.0408 25.8944 23.0408Z" fill="#424242"/>
<path d="M15.5501 35.26C14.6157 35.26 13.8816 34.4717 13.8816 33.4684V31.0675C13.8816 30.0642 14.6157 29.2759 15.5501 29.2759C16.4844 29.2759 17.2185 30.0642 17.2185 31.0675V33.4684C17.2185 34.4717 16.4844 35.26 15.5501 35.26Z" fill="#4A5043"/>
<path opacity="0.2" d="M15.5501 29.9925C16.1173 29.9925 16.5511 30.4942 16.5511 31.0675V33.4684C16.5511 34.0775 16.084 34.5434 15.5501 34.5434C15.0161 34.5434 14.549 34.0417 14.549 33.4684V31.0675C14.549 30.4584 14.9828 29.9925 15.5501 29.9925ZM15.5501 29.2759C14.6157 29.2759 13.8816 30.0642 13.8816 31.0675V33.4684C13.8816 34.4717 14.6157 35.26 15.5501 35.26C16.4844 35.26 17.2185 34.4717 17.2185 33.4684V31.0675C17.2185 30.0642 16.4844 29.2759 15.5501 29.2759Z" fill="#424242"/>
<path opacity="0.2" d="M18.9204 12.7209C19.788 12.7209 20.4887 13.4734 20.4887 14.405C20.4887 15.3367 19.788 16.0892 18.9204 16.0892H12.1798C11.3122 16.0892 10.6114 15.3367 10.6114 14.405C10.6114 13.4734 11.3122 12.7209 12.1798 12.7209H18.9204ZM18.9204 11.6459H12.1798C10.7783 11.6459 9.61035 12.8642 9.61035 14.405C9.61035 15.9459 10.7449 17.1642 12.1798 17.1642H18.9204C20.3219 17.1642 21.4898 15.9459 21.4898 14.405C21.4898 12.8642 20.3219 11.6459 18.9204 11.6459Z" fill="#424242"/>
</svg>
